<svg width="112" height="113" viewBox="0 0 112 113" fill="none" xmlns="http://www.w3.org/2000/svg">
<path d="M1 56C1 25.7742 25.7742 1 56 1C86.2254 1 111 25.7742 111 56C111 70.9858 104.738 84.5822 94.9622 94.5033L56 107.663L17.0379 94.5033C7.26199 84.5821 1 70.9857 1 56ZM32.0312 56C32.0312 69.2179 42.7821 79.9688 56 79.9688C69.2179 79.9688 79.9688 69.2179 79.9688 56C79.9688 42.7821 69.2179 32.0312 56 32.0312C42.7821 32.0312 32.0312 42.7821 32.0312 56Z" fill="url(#paint0_linear_614_555)" stroke="url(#paint1_linear_614_555)" stroke-width="2"/>
<path d="M1 56C1 25.7742 25.7742 1 56 1C86.2254 1 111 25.7742 111 56C111 70.9858 104.738 84.5822 94.9622 94.5033L56 107.663L17.0379 94.5033C7.26199 84.5821 1 70.9857 1 56ZM32.0312 56C32.0312 69.2179 42.7821 79.9688 56 79.9688C69.2179 79.9688 79.9688 69.2179 79.9688 56C79.9688 42.7821 69.2179 32.0312 56 32.0312C42.7821 32.0312 32.0312 42.7821 32.0312 56Z" fill="url(#paint2_linear_614_555)" stroke="url(#paint3_linear_614_555)" stroke-width="2"/>
<path d="M55.656 95.6249C45.8123 95.6249 45.8123 89.0624 35.9685 89.0624C26.1248 89.0624 26.1248 95.6905 16.1496 95.6249C26.256 105.731 40.2342 112.25 55.656 112.25C71.0779 112.25 85.0558 105.731 95.1625 95.6249C85.1873 95.6905 85.2529 89.0624 75.3435 89.0624C65.4998 89.0624 65.4998 95.6249 55.656 95.6249ZM25.1634 67.0551C23.8817 65.7734 21.8051 65.7734 20.5235 67.0551C19.2418 68.3367 19.2418 70.4133 20.5235 71.695L27.086 78.2575C28.3678 79.5391 30.4442 79.5391 31.7259 78.2575C33.0075 76.9758 33.0075 74.8992 31.7259 73.6176L25.1634 67.0551ZM55.656 26.7187H68.781C70.5947 26.7187 72.0623 25.2511 72.0623 23.4374C72.0623 21.6238 70.5947 20.1562 68.781 20.1562H55.656C53.8424 20.1562 52.3748 21.6238 52.3748 23.4374C52.3748 25.2511 53.8424 26.7187 55.656 26.7187ZM84.2259 78.2573L90.7884 71.6948C92.07 70.4131 92.07 68.3365 90.7884 67.0549C89.5067 65.7732 87.4301 65.7732 86.1485 67.0549L79.586 73.6174C78.3043 74.899 78.3043 76.9756 79.586 78.2573C80.8678 79.5391 82.9442 79.5391 84.2259 78.2573ZM86.1487 45.4448C87.4306 46.7264 89.5069 46.7264 90.7886 45.4448C92.0702 44.1631 92.0702 42.0865 90.7886 40.8049L84.2261 34.2424C82.9444 32.9607 80.8678 32.9607 79.5862 34.2424C78.3045 35.524 78.3045 37.6006 79.5862 38.8823L86.1487 45.4448ZM25.1634 45.4448L31.7259 38.8823C33.0075 37.6006 33.0075 35.524 31.7259 34.2424C30.4442 32.9607 28.3676 32.9607 27.086 34.2424L20.5235 40.8049C19.2418 42.0865 19.2418 44.1631 20.5235 45.4448C21.8053 46.7267 23.8817 46.7267 25.1634 45.4448ZM42.5312 26.5625C44.3434 26.5625 45.8125 25.0934 45.8125 23.2812C45.8125 21.4691 44.3434 20 42.5312 20C40.7191 20 39.25 21.4691 39.25 23.2812C39.25 25.0934 40.7189 26.5625 42.5312 26.5625ZM19.5625 56.0937C19.5625 54.2816 18.0934 52.8125 16.2812 52.8125C14.4691 52.8125 13 54.2816 13 56.0937C13 57.9059 14.4691 59.375 16.2812 59.375C18.0934 59.375 19.5625 57.9059 19.5625 56.0937ZM95.0312 52.8125C93.2191 52.8125 91.75 54.2816 91.75 56.0937C91.75 57.9059 93.2191 59.375 95.0312 59.375C96.8434 59.375 98.3125 57.9059 98.3125 56.0937C98.3125 54.2816 96.8434 52.8125 95.0312 52.8125Z" fill="white"/>
<defs>
<linearGradient id="paint0_linear_614_555" x1="56" y1="-41.5486" x2="56" y2="145.074" gradientUnits="userSpaceOnUse">
<stop stop-color="#FFAE00"/>
<stop offset="1" stop-color="#FFCD1E"/>
</linearGradient>
<linearGradient id="paint1_linear_614_555" x1="56" y1="0" x2="56" y2="108.719" gradientUnits="userSpaceOnUse">
<stop stop-color="#FF9F00"/>
<stop offset="1" stop-color="#FFB800"/>
</linearGradient>
<linearGradient id="paint2_linear_614_555" x1="56" y1="-41.5486" x2="56" y2="145.074" gradientUnits="userSpaceOnUse">
<stop offset="0.630208" stop-color="#FFAE00"/>
<stop offset="1" stop-color="#FFCD1E"/>
</linearGradient>
<linearGradient id="paint3_linear_614_555" x1="56" y1="0" x2="56" y2="108.719" gradientUnits="userSpaceOnUse">
<stop stop-color="#FF9F00"/>
<stop offset="1" stop-color="#FFB800"/>
</linearGradient>
</defs>
</svg>
