<svg width="74" height="113" viewBox="0 0 74 113" fill="none" xmlns="http://www.w3.org/2000/svg">
<path d="M3.31745 111.326L3.31357 111.325C2.46385 110.973 1.90625 110.14 1.90625 109.217V3.78125C1.90625 2.51988 2.92613 1.5 4.1875 1.5H69.8125C71.0738 1.5 72.0938 2.51982 72.094 3.78125C72.094 3.78129 72.094 3.78133 72.094 3.78137V109.218C72.094 110.14 71.5364 110.973 70.6866 111.325L70.6812 111.327C69.8594 111.673 68.8644 111.495 68.1998 110.83C65.4662 108.097 61.034 108.097 58.3005 110.83C57.4093 111.722 55.9659 111.722 55.0748 110.83C52.3412 108.097 47.909 108.097 45.1755 110.83C44.2843 111.722 42.8409 111.722 41.9498 110.83C39.2162 108.097 34.784 108.097 32.0505 110.83C31.1593 111.722 29.7159 111.722 28.8248 110.83C26.0912 108.097 21.659 108.097 18.9255 110.83C18.0343 111.722 16.5909 111.722 15.6998 110.83C12.9663 108.097 8.53406 108.097 5.80046 110.83C5.14384 111.487 4.15888 111.678 3.31745 111.326Z" fill="url(#paint0_linear_614_552)" stroke="url(#paint1_linear_614_552)" stroke-width="2"/>
<path d="M36.9687 39.6875C35.1614 39.6875 33.6875 38.2166 33.6875 36.4062C33.6875 34.5959 35.1614 33.125 36.9687 33.125C38.7761 33.125 40.25 34.5959 40.25 36.4062C40.25 38.2199 41.7176 39.6875 43.5312 39.6875C45.3449 39.6875 46.8125 38.2199 46.8125 36.4062C46.8125 32.1341 44.0615 28.526 40.25 27.1669V23.2812C40.25 21.4676 38.7824 20 36.9687 20C35.1551 20 33.6875 21.4676 33.6875 23.2812V27.1669C29.876 28.526 27.125 32.1341 27.125 36.4062C27.125 41.8343 31.5407 46.25 36.9687 46.25C38.7761 46.25 40.25 47.7209 40.25 49.5312C40.25 51.3416 38.7761 52.8125 36.9687 52.8125C35.1614 52.8125 33.6875 51.3416 33.6875 49.5312C33.6875 47.7176 32.2199 46.25 30.4062 46.25C28.5926 46.25 27.125 47.7176 27.125 49.5312C27.125 53.8034 29.876 57.4115 33.6875 58.7706V62.6563C33.6875 64.4699 35.1551 65.9375 36.9687 65.9375C38.7824 65.9375 40.25 64.4699 40.25 62.6563V58.7706C44.0615 57.4117 46.8125 53.8034 46.8125 49.5312C46.8125 44.1032 42.397 39.6875 36.9687 39.6875ZM36.9687 72.5H17.2812C15.4676 72.5 14 73.9676 14 75.7813C14 77.5949 15.4676 79.0625 17.2812 79.0625H36.9687C38.7824 79.0625 40.25 77.5949 40.25 75.7813C40.25 73.9676 38.7824 72.5 36.9687 72.5ZM36.9687 85.625H17.2812C15.4676 85.625 14 87.0926 14 88.9062C14 90.7199 15.4676 92.1875 17.2812 92.1875H36.9687C38.7824 92.1875 40.25 90.7199 40.25 88.9062C40.25 87.0926 38.7824 85.625 36.9687 85.625ZM50.0937 79.0625H56.6562C58.4699 79.0625 59.9375 77.5949 59.9375 75.7813C59.9375 73.9676 58.4699 72.5 56.6562 72.5H50.0937C48.2801 72.5 46.8125 73.9676 46.8125 75.7813C46.8125 77.5949 48.2801 79.0625 50.0937 79.0625ZM56.6562 85.625H50.0937C48.2801 85.625 46.8125 87.0926 46.8125 88.9062C46.8125 90.7199 48.2801 92.1875 50.0937 92.1875H56.6562C58.4699 92.1875 59.9375 90.7199 59.9375 88.9062C59.9375 87.0926 58.4699 85.625 56.6562 85.625Z" fill="white"/>
<defs>
<linearGradient id="paint0_linear_614_552" x1="37.0001" y1="-42.3026" x2="37.0001" y2="149.952" gradientUnits="userSpaceOnUse">
<stop offset="0.630208" stop-color="#FFAE00"/>
<stop offset="1" stop-color="#FFCD1E"/>
</linearGradient>
<linearGradient id="paint1_linear_614_552" x1="37.0001" y1="0.5" x2="37.0001" y2="112.5" gradientUnits="userSpaceOnUse">
<stop stop-color="#FF9F00"/>
<stop offset="1" stop-color="#FFB800"/>
</linearGradient>
</defs>
</svg>
